<?xml version="1.0" encoding="utf-8"?>
<svg width="202" height="63" viewBox="0 0 202 63" fill="none" xmlns="http://www.w3.org/2000/svg">
  <defs/>
  <rect width="202" height="62.5915" rx="11.3803" fill="#127be3"/>
  <path d="M 67.807 43.59 C 67.697 43.59 67.592 43.551 67.495 43.473 C 67.412 43.382 67.371 43.284 67.371 43.179 C 67.371 43.114 67.378 43.056 67.392 43.003 L 72.274 30.471 C 72.314 30.328 72.398 30.205 72.522 30.101 C 72.662 29.984 72.848 29.926 73.084 29.926 L 76.157 29.926 C 76.393 29.926 76.574 29.984 76.698 30.101 C 76.836 30.205 76.927 30.328 76.968 30.471 L 81.829 43.003 C 81.856 43.056 81.87 43.114 81.87 43.179 C 81.87 43.284 81.822 43.382 81.725 43.473 C 81.641 43.551 81.538 43.59 81.414 43.59 L 78.859 43.59 C 78.651 43.59 78.491 43.544 78.381 43.453 C 78.284 43.349 78.222 43.257 78.194 43.179 L 77.384 41.189 L 71.837 41.189 L 71.047 43.179 C 71.02 43.257 70.958 43.349 70.861 43.453 C 70.763 43.544 70.597 43.59 70.362 43.59 L 67.807 43.59 Z M 72.689 38.378 L 76.553 38.378 L 74.599 33.224 L 72.689 38.378 Z M 83.799 47.298 C 83.647 47.298 83.522 47.253 83.424 47.162 C 83.327 47.07 83.279 46.954 83.279 46.811 L 83.279 33.927 C 83.279 33.784 83.327 33.666 83.424 33.576 C 83.522 33.485 83.647 33.439 83.799 33.439 L 86.145 33.439 C 86.285 33.439 86.402 33.485 86.5 33.576 C 86.61 33.666 86.665 33.784 86.665 33.927 L 86.665 34.649 C 86.984 34.246 87.406 33.914 87.932 33.654 C 88.458 33.38 89.11 33.244 89.885 33.244 C 90.578 33.244 91.187 33.347 91.713 33.556 C 92.24 33.751 92.69 34.044 93.063 34.435 C 93.437 34.825 93.728 35.299 93.936 35.859 C 94.157 36.419 94.283 37.063 94.31 37.793 C 94.323 38.052 94.331 38.293 94.331 38.514 C 94.331 38.735 94.323 38.976 94.31 39.237 C 94.283 39.939 94.165 40.571 93.957 41.13 C 93.749 41.689 93.459 42.164 93.084 42.555 C 92.711 42.945 92.253 43.251 91.713 43.473 C 91.187 43.681 90.578 43.784 89.885 43.784 C 89.207 43.784 88.611 43.674 88.098 43.453 C 87.6 43.219 87.184 42.893 86.853 42.477 L 86.853 46.811 C 86.853 46.954 86.803 47.07 86.707 47.162 C 86.61 47.253 86.486 47.298 86.333 47.298 L 83.799 47.298 Z M 88.763 41.169 C 89.235 41.169 89.601 41.078 89.864 40.896 C 90.128 40.714 90.314 40.466 90.426 40.154 C 90.55 39.841 90.626 39.497 90.654 39.119 C 90.682 38.716 90.682 38.313 90.654 37.909 C 90.626 37.532 90.55 37.187 90.426 36.874 C 90.314 36.562 90.128 36.316 89.864 36.133 C 89.601 35.95 89.235 35.859 88.763 35.859 C 88.306 35.859 87.94 35.957 87.663 36.153 C 87.386 36.334 87.184 36.575 87.06 36.874 C 86.935 37.173 86.867 37.499 86.853 37.851 C 86.838 38.098 86.831 38.338 86.831 38.572 C 86.831 38.808 86.838 39.054 86.853 39.315 C 86.867 39.64 86.943 39.946 87.082 40.232 C 87.219 40.506 87.427 40.733 87.704 40.915 C 87.981 41.084 88.334 41.169 88.763 41.169 Z M 96.905 47.298 C 96.752 47.298 96.626 47.253 96.53 47.162 C 96.433 47.07 96.385 46.954 96.385 46.811 L 96.385 33.927 C 96.385 33.784 96.433 33.666 96.53 33.576 C 96.626 33.485 96.752 33.439 96.905 33.439 L 99.251 33.439 C 99.39 33.439 99.508 33.485 99.604 33.576 C 99.715 33.666 99.771 33.784 99.771 33.927 L 99.771 34.649 C 100.089 34.246 100.512 33.914 101.038 33.654 C 101.564 33.38 102.214 33.244 102.991 33.244 C 103.683 33.244 104.292 33.347 104.818 33.556 C 105.345 33.751 105.795 34.044 106.169 34.435 C 106.543 34.825 106.834 35.299 107.042 35.859 C 107.263 36.419 107.387 37.063 107.415 37.793 C 107.429 38.052 107.436 38.293 107.436 38.514 C 107.436 38.735 107.429 38.976 107.415 39.237 C 107.387 39.939 107.269 40.571 107.063 41.13 C 106.854 41.689 106.563 42.164 106.189 42.555 C 105.815 42.945 105.359 43.251 104.818 43.473 C 104.292 43.681 103.683 43.784 102.991 43.784 C 102.312 43.784 101.716 43.674 101.204 43.453 C 100.705 43.219 100.29 42.893 99.958 42.477 L 99.958 46.811 C 99.958 46.954 99.909 47.07 99.813 47.162 C 99.715 47.253 99.59 47.298 99.439 47.298 L 96.905 47.298 Z M 101.869 41.169 C 102.338 41.169 102.706 41.078 102.97 40.896 C 103.232 40.714 103.42 40.466 103.53 40.154 C 103.656 39.841 103.732 39.497 103.759 39.119 C 103.787 38.716 103.787 38.313 103.759 37.909 C 103.732 37.532 103.656 37.187 103.53 36.874 C 103.42 36.562 103.232 36.316 102.97 36.133 C 102.706 35.95 102.338 35.859 101.869 35.859 C 101.412 35.859 101.045 35.957 100.769 36.153 C 100.49 36.334 100.29 36.575 100.165 36.874 C 100.04 37.173 99.971 37.499 99.958 37.851 C 99.944 38.098 99.937 38.338 99.937 38.572 C 99.937 38.808 99.944 39.054 99.958 39.315 C 99.971 39.64 100.047 39.946 100.185 40.232 C 100.325 40.506 100.533 40.733 100.809 40.915 C 101.086 41.084 101.44 41.169 101.869 41.169 Z M 110.008 43.59 C 109.856 43.59 109.731 43.544 109.634 43.453 C 109.538 43.362 109.489 43.244 109.489 43.101 L 109.489 30.218 C 109.489 30.075 109.538 29.958 109.634 29.866 C 109.731 29.775 109.856 29.73 110.008 29.73 L 112.46 29.73 C 112.612 29.73 112.738 29.775 112.834 29.866 C 112.93 29.958 112.98 30.075 112.98 30.218 L 112.98 43.101 C 112.98 43.244 112.93 43.362 112.834 43.453 C 112.738 43.544 112.612 43.59 112.46 43.59 L 110.008 43.59 Z M 120.419 43.784 C 118.785 43.784 117.483 43.368 116.514 42.536 C 115.544 41.702 115.039 40.466 114.997 38.826 C 114.997 38.735 114.997 38.618 114.997 38.476 C 114.997 38.333 114.997 38.221 114.997 38.143 C 115.039 37.115 115.281 36.236 115.725 35.508 C 116.182 34.766 116.804 34.206 117.593 33.829 C 118.396 33.439 119.332 33.244 120.398 33.244 C 121.617 33.244 122.621 33.472 123.41 33.927 C 124.213 34.382 124.816 35 125.218 35.781 C 125.619 36.562 125.819 37.454 125.819 38.456 L 125.819 38.924 C 125.819 39.067 125.766 39.185 125.653 39.275 C 125.557 39.366 125.439 39.413 125.3 39.413 L 118.653 39.413 C 118.653 39.426 118.653 39.444 118.653 39.471 C 118.653 39.497 118.653 39.523 118.653 39.549 C 118.667 39.926 118.736 40.271 118.86 40.584 C 118.986 40.896 119.18 41.144 119.443 41.325 C 119.706 41.508 120.023 41.599 120.398 41.599 C 120.675 41.599 120.904 41.559 121.085 41.481 C 121.278 41.39 121.437 41.292 121.562 41.189 C 121.686 41.071 121.783 40.974 121.852 40.896 C 121.978 40.765 122.074 40.687 122.143 40.662 C 122.226 40.622 122.352 40.603 122.517 40.603 L 125.093 40.603 C 125.23 40.603 125.342 40.642 125.426 40.72 C 125.522 40.785 125.563 40.883 125.55 41.013 C 125.535 41.234 125.418 41.501 125.197 41.813 C 124.974 42.126 124.65 42.438 124.22 42.75 C 123.806 43.05 123.279 43.297 122.641 43.492 C 122.004 43.687 121.264 43.784 120.419 43.784 Z M 118.653 37.479 L 122.164 37.479 L 122.164 37.441 C 122.164 37.024 122.095 36.66 121.956 36.347 C 121.831 36.035 121.63 35.794 121.354 35.625 C 121.09 35.457 120.772 35.372 120.398 35.372 C 120.023 35.372 119.706 35.457 119.443 35.625 C 119.192 35.794 119 36.035 118.86 36.347 C 118.723 36.66 118.653 37.024 118.653 37.441 L 118.653 37.479 Z M 137.84 43.784 C 136.456 43.784 135.306 43.603 134.392 43.239 C 133.478 42.86 132.785 42.373 132.316 41.774 C 131.844 41.176 131.594 40.538 131.566 39.861 C 131.566 39.757 131.607 39.666 131.691 39.587 C 131.788 39.497 131.899 39.451 132.023 39.451 L 134.641 39.451 C 134.835 39.451 134.979 39.484 135.077 39.549 C 135.188 39.614 135.285 39.699 135.368 39.803 C 135.478 39.998 135.631 40.187 135.825 40.368 C 136.032 40.551 136.295 40.7 136.614 40.818 C 136.947 40.921 137.355 40.974 137.84 40.974 C 138.643 40.974 139.246 40.857 139.647 40.622 C 140.061 40.388 140.27 40.069 140.27 39.666 C 140.27 39.38 140.161 39.145 139.938 38.963 C 139.717 38.768 139.356 38.599 138.858 38.456 C 138.373 38.3 137.723 38.143 136.905 37.987 C 135.852 37.779 134.953 37.512 134.205 37.187 C 133.47 36.849 132.909 36.412 132.521 35.879 C 132.133 35.332 131.941 34.656 131.941 33.849 C 131.941 33.055 132.176 32.345 132.646 31.721 C 133.131 31.096 133.804 30.609 134.662 30.257 C 135.52 29.906 136.539 29.73 137.715 29.73 C 138.671 29.73 139.508 29.848 140.228 30.082 C 140.963 30.315 141.58 30.629 142.077 31.018 C 142.577 31.408 142.95 31.825 143.2 32.267 C 143.463 32.697 143.601 33.121 143.615 33.536 C 143.615 33.641 143.574 33.739 143.491 33.829 C 143.407 33.907 143.303 33.947 143.179 33.947 L 140.437 33.947 C 140.285 33.947 140.153 33.92 140.043 33.869 C 139.931 33.817 139.835 33.732 139.751 33.615 C 139.668 33.329 139.447 33.081 139.087 32.873 C 138.741 32.651 138.284 32.541 137.715 32.541 C 137.105 32.541 136.628 32.646 136.282 32.853 C 135.95 33.048 135.783 33.354 135.783 33.771 C 135.783 34.031 135.873 34.259 136.052 34.454 C 136.247 34.649 136.559 34.819 136.989 34.962 C 137.431 35.105 138.033 35.254 138.795 35.41 C 140.056 35.632 141.074 35.912 141.849 36.25 C 142.625 36.575 143.192 37.005 143.553 37.538 C 143.913 38.059 144.092 38.716 144.092 39.509 C 144.092 40.395 143.822 41.162 143.282 41.813 C 142.755 42.451 142.022 42.939 141.08 43.277 C 140.14 43.616 139.059 43.784 137.84 43.784 Z M 151.469 43.59 C 150.584 43.59 149.814 43.46 149.164 43.199 C 148.527 42.925 148.036 42.51 147.689 41.95 C 147.343 41.377 147.17 40.642 147.17 39.744 L 147.17 35.997 L 145.55 35.997 C 145.397 35.997 145.265 35.95 145.154 35.859 C 145.058 35.768 145.009 35.651 145.009 35.508 L 145.009 33.927 C 145.009 33.784 145.058 33.666 145.154 33.576 C 145.265 33.485 145.397 33.439 145.55 33.439 L 147.17 33.439 L 147.17 30.218 C 147.17 30.075 147.218 29.958 147.315 29.866 C 147.426 29.775 147.549 29.73 147.689 29.73 L 150.099 29.73 C 150.252 29.73 150.375 29.775 150.472 29.866 C 150.569 29.958 150.617 30.075 150.617 30.218 L 150.617 33.439 L 153.214 33.439 C 153.366 33.439 153.492 33.485 153.588 33.576 C 153.684 33.666 153.735 33.784 153.735 33.927 L 153.735 35.508 C 153.735 35.651 153.684 35.768 153.588 35.859 C 153.492 35.95 153.366 35.997 153.214 35.997 L 150.617 35.997 L 150.617 39.471 C 150.617 39.913 150.709 40.265 150.888 40.524 C 151.068 40.785 151.373 40.915 151.803 40.915 L 153.402 40.915 C 153.553 40.915 153.678 40.961 153.776 41.052 C 153.872 41.144 153.92 41.26 153.92 41.403 L 153.92 43.101 C 153.92 43.244 153.872 43.362 153.776 43.453 C 153.678 43.544 153.553 43.59 153.402 43.59 L 151.469 43.59 Z M 160.751 43.784 C 159.588 43.784 158.604 43.609 157.8 43.257 C 157.011 42.907 156.403 42.405 155.973 41.755 C 155.557 41.091 155.321 40.303 155.267 39.393 C 155.252 39.132 155.245 38.84 155.245 38.514 C 155.245 38.175 155.252 37.883 155.267 37.635 C 155.321 36.712 155.572 35.924 156.014 35.274 C 156.458 34.623 157.074 34.123 157.864 33.771 C 158.667 33.42 159.629 33.244 160.751 33.244 C 161.887 33.244 162.849 33.42 163.638 33.771 C 164.442 34.123 165.065 34.623 165.508 35.274 C 165.951 35.924 166.2 36.712 166.256 37.635 C 166.268 37.883 166.276 38.175 166.276 38.514 C 166.276 38.84 166.268 39.132 166.256 39.393 C 166.2 40.303 165.958 41.091 165.528 41.755 C 165.113 42.405 164.504 42.907 163.701 43.257 C 162.912 43.609 161.927 43.784 160.751 43.784 Z M 160.751 41.403 C 161.374 41.403 161.824 41.227 162.102 40.876 C 162.392 40.524 162.559 39.998 162.6 39.295 C 162.614 39.1 162.62 38.84 162.62 38.514 C 162.62 38.189 162.614 37.929 162.6 37.733 C 162.559 37.044 162.392 36.523 162.102 36.172 C 161.824 35.807 161.374 35.625 160.751 35.625 C 160.142 35.625 159.692 35.807 159.401 36.172 C 159.109 36.523 158.951 37.044 158.923 37.733 C 158.909 37.929 158.903 38.189 158.903 38.514 C 158.903 38.84 158.909 39.1 158.923 39.295 C 158.951 39.998 159.109 40.524 159.401 40.876 C 159.692 41.227 160.142 41.403 160.751 41.403 Z M 168.84 43.59 C 168.688 43.59 168.562 43.544 168.465 43.453 C 168.367 43.362 168.319 43.244 168.319 43.101 L 168.319 33.927 C 168.319 33.797 168.367 33.686 168.465 33.595 C 168.562 33.491 168.688 33.439 168.84 33.439 L 171.227 33.439 C 171.381 33.439 171.505 33.491 171.602 33.595 C 171.698 33.686 171.747 33.797 171.747 33.927 L 171.747 34.708 C 172.12 34.304 172.564 33.992 173.077 33.771 C 173.603 33.55 174.192 33.439 174.842 33.439 L 175.755 33.439 C 175.895 33.439 176.012 33.485 176.108 33.576 C 176.221 33.666 176.276 33.784 176.276 33.927 L 176.276 35.937 C 176.276 36.068 176.221 36.185 176.108 36.289 C 176.012 36.38 175.895 36.426 175.755 36.426 L 173.742 36.426 C 173.173 36.426 172.729 36.575 172.412 36.874 C 172.107 37.161 171.955 37.57 171.955 38.104 L 171.955 43.101 C 171.955 43.244 171.9 43.362 171.788 43.453 C 171.692 43.544 171.567 43.59 171.414 43.59 L 168.84 43.59 Z M 182.658 43.784 C 181.022 43.784 179.721 43.368 178.752 42.536 C 177.782 41.702 177.277 40.466 177.234 38.826 C 177.234 38.735 177.234 38.618 177.234 38.476 C 177.234 38.333 177.234 38.221 177.234 38.143 C 177.277 37.115 177.519 36.236 177.962 35.508 C 178.419 34.766 179.041 34.206 179.832 33.829 C 180.635 33.439 181.57 33.244 182.637 33.244 C 183.855 33.244 184.858 33.472 185.648 33.927 C 186.452 34.382 187.054 35 187.456 35.781 C 187.857 36.562 188.057 37.454 188.057 38.456 L 188.057 38.924 C 188.057 39.067 188.003 39.185 187.892 39.275 C 187.795 39.366 187.678 39.413 187.538 39.413 L 180.892 39.413 C 180.892 39.426 180.892 39.444 180.892 39.471 C 180.892 39.497 180.892 39.523 180.892 39.549 C 180.904 39.926 180.974 40.271 181.098 40.584 C 181.224 40.896 181.418 41.144 181.681 41.325 C 181.944 41.508 182.262 41.599 182.637 41.599 C 182.912 41.599 183.142 41.559 183.322 41.481 C 183.516 41.39 183.674 41.292 183.8 41.189 C 183.924 41.071 184.021 40.974 184.091 40.896 C 184.215 40.765 184.312 40.687 184.381 40.662 C 184.465 40.622 184.589 40.603 184.756 40.603 L 187.331 40.603 C 187.47 40.603 187.579 40.642 187.663 40.72 C 187.761 40.785 187.8 40.883 187.788 41.013 C 187.774 41.234 187.656 41.501 187.435 41.813 C 187.214 42.126 186.888 42.438 186.459 42.75 C 186.043 43.05 185.517 43.297 184.88 43.492 C 184.243 43.687 183.502 43.784 182.658 43.784 Z M 180.892 37.479 L 184.401 37.479 L 184.401 37.441 C 184.401 37.024 184.332 36.66 184.195 36.347 C 184.07 36.035 183.87 35.794 183.591 35.625 C 183.329 35.457 183.011 35.372 182.637 35.372 C 182.262 35.372 181.944 35.457 181.681 35.625 C 181.431 35.794 181.238 36.035 181.098 36.347 C 180.961 36.66 180.892 37.024 180.892 37.441 L 180.892 37.479 Z" fill="white" style=""/>
  <path d="M 31.221 47.352 C 30.445 46.833 29.756 46.194 29.183 45.458 C 28.552 44.696 27.968 43.898 27.433 43.068 C 26.179 41.226 25.194 39.212 24.511 37.089 C 23.69 34.624 23.292 32.261 23.292 29.948 C 23.292 27.367 23.85 25.113 24.94 23.22 C 25.749 21.739 26.936 20.502 28.382 19.636 C 29.783 18.764 31.392 18.288 33.041 18.256 C 33.618 18.256 34.239 18.339 34.899 18.5 C 35.373 18.634 35.95 18.846 36.654 19.11 C 37.551 19.456 38.045 19.668 38.213 19.72 C 38.738 19.912 39.18 19.997 39.526 19.997 C 39.79 19.997 40.162 19.912 40.584 19.784 C 40.821 19.7 41.269 19.553 41.91 19.278 C 42.546 19.046 43.044 18.847 43.442 18.699 C 44.051 18.519 44.64 18.353 45.166 18.269 C 45.789 18.17 46.422 18.144 47.051 18.192 C 48.14 18.263 49.213 18.494 50.236 18.878 C 51.909 19.553 53.26 20.605 54.267 22.103 C 53.841 22.365 53.442 22.668 53.075 23.007 C 52.275 23.718 51.593 24.553 51.056 25.479 C 50.354 26.745 49.989 28.172 49.998 29.621 C 50.025 31.4 50.48 32.966 51.377 34.322 C 52.036 35.326 52.893 36.185 53.896 36.845 C 54.409 37.192 54.851 37.43 55.274 37.59 C 55.075 38.206 54.864 38.803 54.615 39.395 C 54.048 40.723 53.361 41.995 52.563 43.196 C 51.851 44.23 51.294 45.001 50.871 45.515 C 50.212 46.297 49.576 46.895 48.936 47.311 C 48.23 47.781 47.397 48.031 46.551 48.031 C 45.977 48.052 45.404 47.984 44.853 47.825 C 44.379 47.665 43.909 47.49 43.449 47.292 C 42.969 47.072 42.474 46.884 41.969 46.734 C 40.718 46.411 39.406 46.41 38.155 46.728 C 37.641 46.875 37.148 47.048 36.661 47.26 C 35.975 47.548 35.52 47.742 35.256 47.825 C 34.731 47.979 34.186 48.075 33.635 48.107 C 32.782 48.107 31.988 47.863 31.2 47.368 L 31.221 47.352 Z M 42.467 17.002 C 41.353 17.561 40.288 17.799 39.232 17.722 C 39.065 16.655 39.232 15.564 39.674 14.37 C 40.049 13.357 40.605 12.421 41.313 11.608 C 42.061 10.751 42.969 10.049 43.986 9.54 C 45.069 8.981 46.101 8.68 47.088 8.635 C 47.216 9.752 47.088 10.85 46.678 12.038 C 46.3 13.088 45.744 14.065 45.038 14.928 C 44.317 15.786 43.432 16.491 42.436 17.001 L 42.467 17.002 Z" fill="white" style=""/>
  <text style="white-space: pre; fill: rgb(51, 51, 51); font-family: Arial, sans-serif; font-size: 28px;" x="75.131" y="18.783"> </text>
  <text style="fill: rgb(255, 255, 255); font-family: Arial, sans-serif; font-size: 28px; font-weight: 700; white-space: pre;" transform="matrix(0.513221, 0, 0, 0.467392, 57.787182, 9.849665)" x="23.057" y="23.957">Download via</text>
</svg>