<?xml version="1.0" encoding="utf-8"?>
<svg width="342" height="219" viewBox="0 0 342 219" fill="none" xmlns="http://www.w3.org/2000/svg">
  <rect width="341.746" height="218.493" rx="6.72287" fill="url(#paint0_linear_46_1037)"/>
  <g opacity="0.6">
    <path d="M93.0102 111.71C94.1554 110.564 94.7987 109.011 94.7987 107.392C94.7987 105.772 94.1554 104.219 93.0102 103.074" stroke="white" stroke-width="2.8012" stroke-linecap="round" stroke-linejoin="round"/>
    <path d="M97.7087 114.575C99.3353 112.534 100.221 110 100.22 107.39C100.22 104.78 99.3339 102.247 97.7068 100.206" stroke="white" stroke-width="2.8012" stroke-linecap="round" stroke-linejoin="round"/>
    <path d="M101.851 117.401C104.03 114.536 105.215 111.039 105.225 107.44C105.236 103.84 104.071 100.336 101.909 97.4587" stroke="white" stroke-width="2.8012" stroke-linecap="round" stroke-linejoin="round"/>
    <path d="M106.476 94.5174C109.273 98.3807 110.736 103.05 110.643 107.818C110.55 112.587 108.907 117.195 105.963 120.947" stroke="white" stroke-width="2.8012" stroke-linecap="round" stroke-linejoin="round"/>
  </g>
  <rect x="36.6956" y="89.3862" width="47.4803" height="34.4469" rx="7.00299" fill="url(#paint1_linear_46_1037)" stroke="url(#paint2_linear_46_1037)" stroke-width="0.560239"/>
  <mask id="mask0_46_1037" style="mask-type:alpha" maskUnits="userSpaceOnUse" x="36" y="89" width="48" height="35">
    <rect x="37.2558" y="89.9464" width="46.3598" height="33.3264" rx="6.44275" fill="#DCD59E" stroke="black" stroke-width="0.560239"/>
  </mask>
  <g mask="url(#mask0_46_1037)">
    <path opacity="0.5" fill-rule="evenodd" clip-rule="evenodd" d="M61.5408 90.7764C61.1305 89.9409 59.9395 89.9409 59.5292 90.7764L55.3131 99.3632C55.3131 99.3632 57.4019 105.671 55.3131 112.866L59.5099 122.377C59.903 123.268 61.167 123.268 61.5601 122.377L65.7569 112.866C65.7569 112.866 63.6681 108.956 65.7569 99.3632L61.5408 90.7764Z" stroke="#BFB985" stroke-width="0.728311" stroke-linejoin="bevel"/>
    <path opacity="0.5" d="M36.5143 99.3172H55.1807" stroke="#BFB985" stroke-width="0.728311" stroke-linejoin="bevel"/>
    <path opacity="0.5" d="M65.3134 99.3172H84.513" stroke="#BFB985" stroke-width="0.728311" stroke-linejoin="bevel"/>
    <path opacity="0.5" d="M36.5143 112.762H55.1807" stroke="#BFB985" stroke-width="0.728311" stroke-linejoin="bevel"/>
    <path opacity="0.5" d="M65.3134 112.762H84.513" stroke="#BFB985" stroke-width="0.728311" stroke-linejoin="bevel"/>
  </g>
  <path d="M306.021 182.344C304.459 181.786 302.807 181.507 301.144 181.518C295.767 181.518 291.969 184.17 291.942 187.976C291.908 190.773 294.641 192.349 296.708 193.283C298.829 194.244 299.538 194.849 299.531 195.708C299.518 197.014 297.837 197.606 296.274 197.606C294.127 197.606 292.954 197.313 291.149 196.58L290.48 196.274L289.717 200.656C291.024 201.189 293.38 201.647 295.814 201.686C301.531 201.686 305.268 199.051 305.312 195.001C305.359 192.767 303.88 191.079 300.768 189.684C298.876 188.779 297.703 188.174 297.703 187.256C297.703 186.443 298.708 185.574 300.808 185.574C302.206 185.541 303.596 185.798 304.885 186.328L305.389 186.548L306.152 182.314L306.021 182.344ZM319.976 181.873H315.774C314.467 181.873 313.482 182.225 312.911 183.495L304.831 201.413H310.548L311.691 198.475L318.668 198.481C318.833 199.169 319.337 201.413 319.337 201.413H324.378L319.976 181.873ZM284.209 181.709H289.657L286.249 201.258H280.807L284.209 181.702V181.709ZM270.378 192.484L270.943 195.198L276.267 181.873H282.037L273.464 201.387H267.706L263.001 184.864C262.925 184.591 262.746 184.357 262.5 184.209C260.804 183.351 259.007 182.701 257.15 182.271L257.224 181.86H265.992C267.182 181.906 268.14 182.271 268.459 183.515L270.375 192.493V192.484H270.378ZM313.254 194.477L315.425 189.009C315.398 189.068 315.872 187.881 316.147 187.147L316.521 188.835L317.781 194.474H313.25V194.477H313.254Z" fill="white"/>
  <path d="M37.1466 22.8151H28.0835C27.7137 22.8151 27.6344 22.8418 27.4231 23.0549L20.2378 29.7676C20.0264 29.9807 20 30.0606 20 30.4336V34.3764C20 36.6135 21.1096 37.7324 23.3288 37.7324H32.3918C32.761 37.7324 32.8403 37.7057 33.0516 37.4926L40.2376 30.7799C40.4483 30.5668 40.4747 30.4869 40.4747 30.1139V26.1718C40.4747 23.934 39.3657 22.8151 37.1466 22.8151Z" fill="white"/>
  <path d="M 88.527 29.723 C 90.303 30.082 91.212 31.752 91.212 33.358 C 91.212 35.408 89.753 37.501 86.731 37.501 L 80.623 37.501 L 80.623 22.939 L 86.287 22.939 C 88.823 22.939 90.43 24.46 90.43 26.68 C 90.43 27.821 90.007 29.195 88.527 29.723 Z M 87.851 27.039 C 87.851 26.024 87.302 25.242 86.181 25.242 L 83.201 25.242 L 83.201 28.814 L 86.181 28.814 C 87.259 28.814 87.851 28.096 87.851 27.039 Z M 83.201 35.197 L 86.329 35.197 C 87.83 35.197 88.612 34.204 88.612 33.105 C 88.612 32.069 87.936 30.991 86.393 30.991 L 83.201 30.991 L 83.201 35.197 Z" fill="white"/>
  <path d="M 101.99 28.713 L 101.99 27.339 L 104.441 27.339 L 104.441 37.209 L 101.99 37.209 L 101.99 35.667 C 101.335 36.744 100.024 37.463 98.608 37.463 C 95.966 37.463 93.853 35.328 93.853 32.264 C 93.853 29.284 95.882 27.086 98.672 27.086 C 100.024 27.086 101.335 27.677 101.99 28.713 Z M 99.115 35.18 C 100.637 35.18 101.948 33.912 101.948 32.264 C 101.948 30.573 100.553 29.368 99.094 29.368 C 97.509 29.368 96.304 30.679 96.304 32.264 C 96.304 33.849 97.509 35.18 99.115 35.18 Z" fill="white"/>
  <path d="M 114.585 27.085 C 117.121 27.085 118.537 28.797 118.537 31.671 L 118.537 37.209 L 116.085 37.209 L 116.085 31.84 C 116.085 30.255 115.134 29.41 114.035 29.41 C 112.915 29.41 111.52 30.065 111.52 31.967 L 111.52 37.209 L 109.068 37.209 L 109.068 27.339 L 111.52 27.339 L 111.52 28.903 C 112.027 27.656 113.57 27.085 114.585 27.085 Z" fill="white"/>
  <path d="M 127.016 31.651 L 132.729 37.209 L 129.139 37.209 L 124.696 32.729 L 124.696 37.209 L 121.863 37.209 L 121.863 21.971 L 124.696 21.971 L 124.696 30.488 L 127.968 27.339 L 131.654 27.339 L 127.016 31.651 Z" fill="white" style=""/>
  <path d="M154.021 24.5995H150V34.4671H151.758V30.9297H154.021C156.212 30.9297 157.149 29.3686 157.149 27.7646C157.149 26.1892 156.212 24.5995 154.021 24.5995ZM153.935 29.3543H151.758V26.1606H153.978C154.987 26.1606 155.39 26.9912 155.39 27.7646C155.39 28.5666 154.972 29.3543 153.935 29.3543Z" fill="white"/>
  <path d="M164.842 31.0586C164.842 28.9676 163.328 27.6357 161.397 27.6357C159.48 27.6357 157.866 28.9819 157.866 31.1158C157.866 33.2068 159.394 34.6103 161.411 34.6103C162.637 34.6103 163.818 34.0947 164.438 33.1209L163.328 32.2759C162.925 32.8201 162.233 33.1065 161.498 33.1065C160.503 33.1065 159.783 32.6339 159.595 31.703L164.798 31.703C164.827 31.4596 164.842 31.2447 164.842 31.0586ZM159.595 30.543C159.797 29.5262 160.518 29.0965 161.426 29.0965C162.363 29.0965 163.069 29.6264 163.17 30.543H159.595Z" fill="white"/>
  <path d="M167.314 26.4327C167.92 26.4327 168.41 25.9887 168.41 25.4159C168.41 24.8287 167.92 24.399 167.314 24.399C166.723 24.399 166.233 24.8287 166.233 25.4159C166.233 25.9887 166.723 26.4327 167.314 26.4327ZM164.547 37.7324H165.426C167.314 37.7324 168.15 36.5723 168.15 34.7105V27.7789H166.478V34.7105C166.493 35.4696 166.248 36.1857 165.368 36.1857H164.547V37.7324Z" fill="white"/>
  <path d="M173.291 34.6103C175.208 34.6103 176.88 33.2211 176.88 31.1015C176.88 28.9819 175.208 27.6357 173.291 27.6357C171.375 27.6357 169.717 28.9819 169.717 31.1015C169.717 33.2211 171.375 34.6103 173.291 34.6103ZM173.291 33.0636C172.254 33.0636 171.403 32.2759 171.403 31.1015C171.403 29.9558 172.254 29.1824 173.291 29.1824C174.329 29.1824 175.194 29.9558 175.194 31.1015C175.194 32.2759 174.329 33.0636 173.291 33.0636Z" fill="white"/>
  <path d="M182.031 27.7789L180.604 27.7789V25.3156H178.932V27.7789H177.721V29.1108H178.932V34.4671H180.604V29.1108H182.031V27.7789Z" fill="white"/>
  <path d="M188.328 27.7789V28.6669C187.867 27.9651 186.93 27.6357 186.08 27.6357C184.307 27.6357 182.779 28.9676 182.779 31.1158C182.779 33.2497 184.321 34.6103 186.094 34.6103C186.916 34.6103 187.867 34.2809 188.328 33.5648V34.4671H190V27.7789H188.328ZM186.354 33.0492C185.316 33.0492 184.465 32.2186 184.465 31.1015C184.465 29.9844 185.316 29.1824 186.354 29.1824C187.319 29.1824 188.299 29.9272 188.299 31.1015C188.299 32.2759 187.377 33.0492 186.354 33.0492Z" fill="white"/>
  <defs>
    <linearGradient id="paint0_linear_46_1037" x1="-168.222" y1="-49.8177" x2="447.471" y2="308.075" gradientUnits="userSpaceOnUse">
      <stop offset="0.0052" stop-color="#25018A"/>
      <stop offset="1" stop-color="#673DFD"/>
    </linearGradient>
    <linearGradient id="paint1_linear_46_1037" x1="60.4357" y1="89.6663" x2="76.5971" y2="136.43" gradientUnits="userSpaceOnUse">
      <stop stop-color="#DCD59E"/>
      <stop offset="1" stop-color="#CBBB82"/>
    </linearGradient>
    <linearGradient id="paint2_linear_46_1037" x1="40.1037" y1="91.5953" x2="60.4357" y2="123.553" gradientUnits="userSpaceOnUse">
      <stop stop-color="#FBF3C0"/>
      <stop offset="1" stop-color="#CCBC84"/>
    </linearGradient>
  </defs>
  <text style="fill: rgb(255, 255, 255); font-family: Arial, sans-serif; font-weight: 700; white-space: pre; font-size: 15px;" x="19.392" y="200.438">Nome do Cliente</text>
  <text style="fill: rgb(255, 255, 255); font-family: Arial, sans-serif; font-size: 20px; white-space: pre;" x="43.515" y="37.127">Digi</text>
</svg>