<?xml version="1.0" encoding="utf-8"?>
<svg width="176" height="24" viewBox="0 0 176 24" fill="none" xmlns="http://www.w3.org/2000/svg">
  <defs/>
  <path d="M25.1483 1.2391H11.8559C11.3134 1.2391 11.1971 1.27817 10.8872 1.59075L0.34873 11.4361C0.0387478 11.7486 0 11.8659 0 12.4129V18.1956C0 21.4767 1.62741 23.1178 4.88222 23.1178H18.1747C18.7162 23.1178 18.8324 23.0787 19.1424 22.7661L29.6818 12.9208C29.9908 12.6082 30.0295 12.491 30.0295 11.944V6.16224C30.0295 2.88015 28.4031 1.2391 25.1483 1.2391Z" style="fill: rgb(255, 255, 255);"/>
  <path d="M 121.664 8.641 C 124.268 9.168 125.601 11.617 125.601 13.973 C 125.601 16.98 123.462 20.049 119.03 20.049 L 110.071 20.049 L 110.071 -1.309 L 118.379 -1.309 C 122.098 -1.309 124.454 0.923 124.454 4.177 C 124.454 5.851 123.834 7.866 121.664 8.641 Z M 120.673 4.704 C 120.673 3.216 119.867 2.07 118.224 2.07 L 113.853 2.07 L 113.853 7.308 L 118.224 7.308 C 119.805 7.308 120.673 6.254 120.673 4.704 Z M 113.853 16.67 L 118.441 16.67 C 120.642 16.67 121.788 15.213 121.788 13.601 C 121.788 12.082 120.797 10.501 118.534 10.501 L 113.853 10.501 L 113.853 16.67 Z" style="fill: rgb(255, 255, 255);"/>
  <path d="M 139.265 7.41 L 139.265 5.396 L 142.861 5.396 L 142.861 19.872 L 139.265 19.872 L 139.265 17.609 C 138.304 19.19 136.382 20.244 134.305 20.244 C 130.431 20.244 127.331 17.113 127.331 12.618 C 127.331 8.247 130.307 5.024 134.398 5.024 C 136.382 5.024 138.304 5.891 139.265 7.41 Z M 135.049 16.896 C 137.281 16.896 139.203 15.036 139.203 12.618 C 139.203 10.138 137.157 8.371 135.018 8.371 C 132.693 8.371 130.926 10.293 130.926 12.618 C 130.926 14.943 132.693 16.896 135.049 16.896 Z" style="fill: rgb(255, 255, 255);"/>
  <path d="M 154.132 5.201 C 157.852 5.201 159.929 7.711 159.929 11.927 L 159.929 20.049 L 156.333 20.049 L 156.333 12.175 C 156.333 9.85 154.938 8.61 153.326 8.61 C 151.684 8.61 149.638 9.571 149.638 12.361 L 149.638 20.049 L 146.042 20.049 L 146.042 5.573 L 149.638 5.573 L 149.638 7.866 C 150.382 6.037 152.645 5.201 154.132 5.201 Z" style="fill: rgb(255, 255, 255);"/>
  <path d="M 168.395 12.073 L 175.648 20.225 L 171.092 20.225 L 165.45 13.654 L 165.45 20.225 L 161.854 20.225 L 161.854 -2.124 L 165.45 -2.124 L 165.45 10.368 L 169.604 5.749 L 174.284 5.749 L 168.395 12.073 Z" style="fill: rgb(255, 255, 255);"/>
  <text style="fill: rgb(255, 255, 255); font-family: Arial, sans-serif; font-size: 28px; font-weight: 700; white-space: pre;" transform="matrix(1.435877, 0, 0, 0.767982, -17.120321, 2.324973)" x="34.406" y="21.612">Digi</text>
  <text style="fill: rgb(255, 255, 255); font-family: Arial, sans-serif; font-size: 28px; white-space: pre;" x="53.872" y="55.943"> </text>
</svg>